static_grf.mot
version=1
nRows=17
nColumns 19
inDegrees=yes
endheader
time	1_ground_force_vx	1_ground_force_vy	1_ground_force_vz	1_ground_force_px	1_ground_force_py	1_ground_force_pz	1_ground_torque_x	1_ground_torque_y	1_ground_torque_z	2_ground_force_vx	2_ground_force_vy	2_ground_force_vz	2_ground_force_px	2_ground_force_py	2_ground_force_pz	2_ground_torque_x	2_ground_torque_y	2_ground_torque_z
            0.005000	           -2.032290	          285.635022	          -20.827543	           -0.241143	            0.006172	           -0.393654	           -0.009712	            1.364997	           -0.099531	            0.661726	          260.678939	           23.595992	           -0.251173	            0.005574	           -0.696801	           -0.002337	           -0.920757	           -0.083345
            0.005500	           -2.214961	          284.912941	          -20.600900	           -0.241070	            0.006173	           -0.394039	           -0.010381	            1.335360	           -0.096554	            0.242736	          259.940854	           23.593543	           -0.251038	            0.005573	           -0.696551	           -0.000777	           -0.831948	           -0.075512
            0.006000	           -2.306860	          285.453948	          -20.644209	           -0.241072	            0.006173	           -0.393915	           -0.010694	            1.323286	           -0.095701	            0.615438	          260.495466	           23.360714	           -0.251136	            0.005574	           -0.696775	           -0.002036	           -0.861883	           -0.077292
            0.006500	           -2.307594	          286.356229	          -20.869624	           -0.240915	            0.006170	           -0.393184	           -0.010589	            1.313974	           -0.095762	            0.756091	          260.495137	           23.595295	           -0.250732	            0.005575	           -0.696635	           -0.002846	           -0.980568	           -0.088819
            0.007000	           -2.169397	          285.814506	          -20.643005	           -0.240850	            0.006171	           -0.393606	           -0.009876	            1.301205	           -0.093980	            0.710611	          260.126351	           23.687857	           -0.251289	            0.005572	           -0.696583	           -0.002468	           -0.903599	           -0.082284
            0.007500	           -2.170047	          285.635389	          -20.918913	           -0.240984	            0.006172	           -0.393800	           -0.009850	            1.296563	           -0.094956	            0.287674	          260.492775	           23.783207	           -0.251065	            0.005574	           -0.696842	           -0.000930	           -0.842164	           -0.076890
            0.008000	           -2.215303	          284.913531	          -20.738468	           -0.241003	            0.006175	           -0.394389	           -0.010374	            1.334188	           -0.097114	            0.895914	          260.680287	           23.455108	           -0.251175	            0.005574	           -0.697021	           -0.003167	           -0.921436	           -0.082908
            0.008500	           -1.986953	          286.536980	          -20.961359	           -0.240922	            0.006169	           -0.393172	           -0.009233	            1.331457	           -0.097402	            0.620152	          259.205918	           23.496899	           -0.251341	            0.005572	           -0.696458	           -0.002284	           -0.954700	           -0.086543
            0.009000	           -2.032063	          285.634629	          -20.735831	           -0.240420	            0.006172	           -0.393642	           -0.009725	            1.366915	           -0.099232	            0.378592	          261.230681	           23.504226	           -0.251164	            0.005575	           -0.697229	           -0.001207	           -0.832509	           -0.074905
            0.009500	           -2.307315	          285.454734	          -20.827633	           -0.240806	            0.006171	           -0.393483	           -0.010668	            1.319794	           -0.096296	            0.428162	          260.493785	           23.642363	           -0.251049	            0.005574	           -0.696701	           -0.001473	           -0.896363	           -0.081354
            0.010000	           -2.352508	          285.633781	          -20.551611	           -0.240546	            0.006172	           -0.393750	           -0.010978	            1.332873	           -0.095901	            0.571391	          259.757501	           23.686603	           -0.251388	            0.005572	           -0.696676	           -0.001991	           -0.905339	           -0.082555
            0.010500	           -2.307153	          285.814872	          -20.734375	           -0.240411	            0.006171	           -0.393557	           -0.010428	            1.291785	           -0.093712	            0.427518	          260.677758	           23.689948	           -0.250895	            0.005575	           -0.697014	           -0.001450	           -0.883864	           -0.080324
            0.011000	           -2.077906	          285.634620	          -20.735717	           -0.240846	            0.006171	           -0.393640	           -0.009293	            1.277455	           -0.092737	            0.428141	          260.493952	           23.595435	           -0.251269	            0.005575	           -0.697133	           -0.001463	           -0.890421	           -0.080654
            0.011500	           -2.399262	          285.635345	          -20.918344	           -0.240876	            0.006170	           -0.393213	           -0.011159	            1.328466	           -0.097289	            0.568650	          260.494795	           23.501519	           -0.251043	            0.005575	           -0.697136	           -0.002012	           -0.921615	           -0.083147
            0.012000	           -2.261308	          284.553384	          -20.831612	           -0.241086	            0.006173	           -0.394052	           -0.010504	            1.321831	           -0.096769	            0.473600	          260.862905	           23.455944	           -0.251106	            0.005576	           -0.697398	           -0.001582	           -0.871205	           -0.078336
            0.012500	           -2.352994	          284.553366	          -20.831384	           -0.241033	            0.006173	           -0.394054	           -0.010968	            1.326387	           -0.097101	            0.706521	          261.232032	           23.457159	           -0.251204	            0.005576	           -0.697595	           -0.002524	           -0.933344	           -0.083809
            0.013000	           -2.398561	          284.913299	          -20.692157	           -0.241037	            0.006173	           -0.393989	           -0.011028	            1.309954	           -0.095137	            0.614897	          260.678602	           23.642940	           -0.250881	            0.005577	           -0.697305	           -0.002186	           -0.926730	           -0.084052
